<?xml version="1.0" encoding="UTF-8" standalone="no"?>
<svg width="172px" height="193px" viewBox="0 0 172 193" version="1.1" xmlns="http://www.w3.org/2000/svg" xmlns:xlink="http://www.w3.org/1999/xlink" xmlns:sketch="http://www.bohemiancoding.com/sketch/ns">
    <!-- Generator: Sketch 3.5 (25232) - http://www.bohemiancoding.com/sketch -->
    <title>birdie</title>
    <desc>Created with Sketch.</desc>
    <defs></defs>
    <g id="Page-1" stroke="none" stroke-width="1" fill="none" fill-rule="evenodd" sketch:type="MSPage">
        <g id="happier" sketch:type="MSArtboardGroup" transform="translate(-215.000000, -159.000000)">
            <g id="birdie" sketch:type="MSLayerGroup" transform="translate(215.000000, 159.000000)">
                <ellipse id="shadow" fill-opacity="0.187952899" fill="#343434" sketch:type="MSShapeGroup" cx="85.300813" cy="176.858182" rx="78.3089431" ry="16.1418182"></ellipse>
                <g id="feet" transform="translate(28.666667, 157.207273)" fill="#353535" sketch:type="MSShapeGroup">
                    <path d="M22.9639008,-1.55834941e-16 L34.9593496,-1.55834941e-16 L44.6733289,26.0439939 L29.4025381,16.9312458 L17.3545371,31.3535929 L19.1450862,20.3225108 L0.278778355,22.2276889 L22.9639008,-1.55834941e-16 Z" id="Rectangle-5"></path>
                    <path d="M92.8825999,-1.55834941e-16 L104.878049,-1.55834941e-16 L114.592028,26.0439939 L99.3212373,16.9312458 L87.2732363,31.3535929 L89.0637854,20.3225108 L70.1974775,22.2276889 L92.8825999,-1.55834941e-16 Z" id="Rectangle-5" transform="translate(92.394753, 15.676796) scale(-1, 1) translate(-92.394753, -15.676796) "></path>
                </g>
                <g id="body" sketch:type="MSShapeGroup">
                    <path d="M35.8685194,166.131308 C47.9987272,169.885673 64.1958122,161.622068 85.8089868,161.622068 C107.097393,161.622068 123.13126,169.94711 135.19988,166.299402 C176.09806,153.938036 171.459396,122.635391 171.459396,85.9727273 C171.459396,66.2032006 164.81162,47.9921882 153.637484,33.4690882 C149.660612,28.3003213 144.558223,12.9362428 135.199875,7.86866357 C135.199875,7.86866357 131.014985,12.9362428 131.014982,12.9362427 C117.894259,4.73657405 102.402693,0 85.8089891,0 C73.0106175,0 60.8678761,2.81765011 49.962861,7.86866358 C49.9628616,7.86866357 45.7135104,1.73817266 45.7135104,1.73817256 C32.162871,7.86866357 27.3712075,22.7969851 23.0414633,27.4756972 C8.84184562,42.8197728 0.158582549,63.3783916 0.158582549,85.9727273 C0.158582549,122.470344 -4.43841194,153.656093 35.8685194,166.131308 Z" id="body-inner" fill="#4BA1E3"></path>
                    <path d="M35.8685194,165.507605 C-4.43841205,108.299835 27.7362493,22.3747853 23.4065051,27.0534974 C14.9393306,36.2031076 8.06855819,47.0053433 4.19573298,59.1892235 C1.57375437,67.4379493 0.158582549,76.2275991 0.158582549,85.349024 C0.158582549,121.84664 -4.43841194,153.032389 35.8685194,165.507605 Z" id="body-outer-left" fill="#286491"></path>
                    <path d="M134.943089,166.018752 C175.84127,153.657386 171.202605,122.35474 171.202605,85.6920769 C171.202605,65.9225502 164.55483,47.7115378 153.380694,33.1884377 C149.403822,28.0196709 162.941769,122.893234 134.943089,166.018752 Z" id="body-outer-right" fill="#286491"></path>
                    <path d="M131.005814,12.9259752 C133.615933,13.6015109 138.957412,17.2513802 142.543409,20.5134196 C146.415406,24.0356226 152.047678,30.2298737 153.204186,32.9985609 C153.204186,32.9985609 147.064153,25.9471127 141.972664,21.3155871 C136.881175,16.6840615 131.078946,13.1035219 131.005814,12.9259752 Z" id="Rectangle-11" fill-opacity="0.234912817" fill="#000000"></path>
                    <path d="M52.4682568,6.7640811 C53.9584071,6.1467589 55.4715943,5.61454545 55.4715943,5.61454545 C55.4715943,5.61454545 59.3145172,9.19599661 61.9984189,10.9447359 C66.9891557,14.1965307 78.4955099,20.6161477 78.4955099,20.6161477 C78.4955099,20.6161477 58.3757159,15.8112269 49.949961,7.87558201 C49.949961,7.87558201 51.0351677,7.35776462 52.4682568,6.7640811 Z" id="Rectangle-10" opacity="0.205340485" fill="#000000"></path>
                </g>
                <g id="eyes" transform="translate(2.796748, 25.967273)" sketch:type="MSShapeGroup">
                    <ellipse id="Oval-11" fill="#408DC8" cx="46.1463415" cy="46.32" rx="46.1463415" ry="46.32"></ellipse>
                    <ellipse id="Oval-11" fill="#408DC8" cx="125.853659" cy="44.2145455" rx="39.8536585" ry="40.0036364"></ellipse>
                    <g id="Group" transform="translate(13.284553, 6.316364)">
                        <ellipse id="Oval-3" fill="#FDEED8" cx="38.4552846" cy="38.6" rx="38.4552846" ry="38.6"></ellipse>
                        <ellipse id="Oval-3" fill="#FFFFFF" cx="37.4065041" cy="38.9509091" rx="29.7154472" ry="29.8272727"></ellipse>
                        <ellipse id="Oval-3" fill="#2B2B2B" cx="37.7560976" cy="39.3018182" rx="14.6829268" ry="14.7381818"></ellipse>
                        <ellipse id="Oval-3" fill="#FFFFFF" cx="39.8536585" cy="25.2654545" rx="2.79674797" ry="2.80727273"></ellipse>
                    </g>
                    <g id="Group" transform="translate(88.097561, 9.123636)">
                        <ellipse id="Oval-3" fill="#FDEED8" cx="35.2066762" cy="35.54447" rx="35.2066762" ry="35.3391664"></ellipse>
                        <ellipse id="Oval-3" fill="#FFFFFF" cx="37.0569106" cy="35.7927273" rx="27.2682927" ry="27.3709091"></ellipse>
                        <ellipse id="Oval-3" fill="#2B2B2B" cx="37.4065041" cy="36.1436364" rx="14.3333333" ry="14.3872727"></ellipse>
                        <path d="M39.1544715,23.8618182 C40.3129225,23.8618182 41.2520325,22.9191741 41.2520325,21.7563636 C41.2520325,20.5935532 40.3129225,19.6509091 39.1544715,19.6509091 C37.9960206,19.6509091 37.0569106,20.5935532 37.0569106,21.7563636 C37.0569106,22.9191741 37.9960206,23.8618182 39.1544715,23.8618182 Z" id="Oval-3" fill="#FFFFFF"></path>
                    </g>
                </g>
                <g id="spots" transform="translate(60.829268, 119.309091)" fill="#39709A" sketch:type="MSShapeGroup">
                    <ellipse id="Oval-13" cx="5.24390244" cy="11.58" rx="5.24390244" ry="5.26363636"></ellipse>
                    <ellipse id="Oval-13" cx="32.5121951" cy="5.26363636" rx="5.24390244" ry="5.26363636"></ellipse>
                    <ellipse id="Oval-13" cx="57.6829268" cy="8.07090909" rx="5.24390244" ry="5.26363636"></ellipse>
                    <ellipse id="Oval-13" cx="22.0243902" cy="27.02" rx="5.24390244" ry="5.26363636"></ellipse>
                    <ellipse id="Oval-13" cx="45.097561" cy="23.5109091" rx="5.24390244" ry="5.26363636"></ellipse>
                </g>
                <path d="M80.4065041,84.4553598 C80.4065041,84.4553598 88.3515662,78.6036364 92.2926829,78.6036364 C96.2756854,78.6036364 104.178862,84.4553598 104.178862,84.4553598 L92.2926829,105.177465 L80.4065041,84.4553598 Z" id="nose" fill="#2C2C2C" sketch:type="MSShapeGroup"></path>
            </g>
        </g>
    </g>
</svg>