<?xml version="1.0" encoding="UTF-8" standalone="no"?>
<svg width="100px" height="100px" viewBox="0 0 100 100" version="1.1" xmlns="http://www.w3.org/2000/svg" xmlns:xlink="http://www.w3.org/1999/xlink" xmlns:sketch="http://www.bohemiancoding.com/sketch/ns">
    <!-- Generator: Sketch 3.4.2 (15855) - http://www.bohemiancoding.com/sketch -->
    <title>client-logo-cloudapp</title>
    <desc>Created with Sketch.</desc>
    <defs></defs>
    <g id="Page-1" stroke="none" stroke-width="1" fill="none" fill-rule="evenodd" sketch:type="MSPage">
        <g id="client-logo-cloudapp" sketch:type="MSArtboardGroup" fill="#FFFFFF">
            <g id="cloudapp-logo" sketch:type="MSLayerGroup" transform="translate(0.000000, 42.000000)">
                <g id="Group-3" sketch:type="MSShapeGroup">
                    <path d="M16.7306123,15.5833333 C19.9363925,15.5833333 22.5352113,13.059872 22.5352113,9.94683767 C22.5352113,6.83380337 19.9363925,4.31017068 16.7306123,4.31017068 C16.6767974,4.31017068 16.6228061,4.31102737 16.5689911,4.31256941 C15.9558541,1.83845331 13.6622806,0 10.9261898,0 C7.72040952,0 5.1215908,2.52363269 5.1215908,5.636667 C2.2930442,5.636667 0,7.86320015 0,10.6099145 C0,13.3566288 2.2930442,15.5833333 5.1215908,15.5833333 L16.7306123,15.5833333" id="Fill-1"></path>
                </g>
                <path d="M35.4187608,5.98149072 C35.2804397,5.75394915 35.1074978,5.55435128 34.8999349,5.38219812 C34.692372,5.21037762 34.4575026,5.07631439 34.1956515,4.98017475 C33.9338005,4.88420144 33.6594339,4.83613162 33.3728769,4.83613162 C32.8488497,4.83613162 32.4041418,4.93992251 32.0385906,5.1470053 C31.6728768,5.35442075 31.3762424,5.63252711 31.1490122,5.98149072 C30.921457,6.33045433 30.7561544,6.72748776 30.6522917,7.17242467 C30.5485915,7.61769425 30.4965789,8.07776734 30.4965789,8.55314293 C30.4965789,9.00839241 30.5485915,9.45100068 30.6522917,9.88080142 C30.7561544,10.3107685 30.921457,10.6976557 31.1490122,11.0412967 C31.3762424,11.3854367 31.6728768,11.6610481 32.0385906,11.8681309 C32.4041418,12.0755463 32.8488497,12.1791709 33.3728769,12.1791709 C34.0844745,12.1791709 34.640522,11.9567856 35.0406941,11.511516 C35.4410287,11.0667454 35.6858131,10.4799277 35.7747222,9.75172814 L38.028169,9.75172814 C37.9690047,10.4295292 37.8155674,11.0412967 37.56867,11.5873632 C37.3214475,12.1337624 36.9953934,12.5989917 36.59002,12.983384 C36.1846467,13.3677762 35.710194,13.6610187 35.1668247,13.8632779 C34.6231302,14.0655371 34.0251476,14.1666667 33.3728769,14.1666667 C32.5622927,14.1666667 31.8333033,14.0226235 31.1859087,13.7343709 C30.5385141,13.4461184 29.9925441,13.0490849 29.5476736,12.5432707 C29.1029657,12.0376227 28.761958,11.4433201 28.5246504,10.7606954 C28.2875053,10.0779043 28.1690141,9.34205351 28.1690141,8.55314293 C28.1690141,7.74410624 28.2875053,6.99295292 28.5246504,6.30001565 C28.761958,5.60741105 29.1029657,5.00279584 29.5476736,4.48700168 C29.9925441,3.97120752 30.5385141,3.5668555 31.1859087,3.2732803 C31.8333033,2.98003777 32.5622927,2.83333333 33.3728769,2.83333333 C33.9559058,2.83333333 34.5070771,2.91932675 35.025903,3.09114725 C35.5448914,3.26330041 36.0092666,3.5136294 36.4196787,3.84230056 C36.8296032,4.17113805 37.1683354,4.57815137 37.4352251,5.06367319 C37.7021149,5.549195 37.8700181,6.10540773 37.9392599,6.7324777 L35.6858131,6.7324777 C35.6461535,6.45936129 35.5572444,6.20903229 35.4187608,5.98149072" id="Fill-4" sketch:type="MSShapeGroup"></path>
                <path d="M39.4366197,2.83333333 L42.2535211,2.83333333 L42.2535211,14.1666667 L39.4366197,14.1666667 L39.4366197,2.83333333 Z" id="Fill-5" sketch:type="MSShapeGroup"></path>
                <path d="M45.999548,10.8775653 C46.0627539,11.185046 46.1706367,11.4610078 46.3233696,11.7057932 C46.4759294,11.9505787 46.6788807,12.1458589 46.9315308,12.2916339 C47.184354,12.4375802 47.50021,12.510382 47.8792717,12.510382 C48.2583334,12.510382 48.5767868,12.4375802 48.8349783,12.2916339 C49.0928234,12.1458589 49.298199,11.9505787 49.4509319,11.7057932 C49.6033186,11.4610078 49.7115477,11.185046 49.7749267,10.8775653 C49.8379593,10.5704272 49.8696488,10.255238 49.8696488,9.93216918 C49.8696488,9.60944291 49.8379593,9.2916843 49.7749267,8.97923594 C49.7115477,8.66661628 49.6033186,8.39082579 49.4509319,8.15100797 C49.298199,7.91153275 49.0928234,7.71625253 48.8349783,7.5651673 C48.5767868,7.41425337 48.2583334,7.33836816 47.8792717,7.33836816 C47.50021,7.33836816 47.184354,7.41425337 46.9315308,7.5651673 C46.6788807,7.71625253 46.4759294,7.91153275 46.3233696,8.15100797 C46.1706367,8.39082579 46.0627539,8.66661628 45.999548,8.97923594 C45.9365154,9.2916843 45.9048259,9.60944291 45.9048259,9.93216918 C45.9048259,10.255238 45.9365154,10.5704272 45.999548,10.8775653 L45.999548,10.8775653 Z M43.9618964,8.17430456 C44.1619039,7.64858964 44.4462435,7.20064422 44.8149152,6.83081088 C45.1834138,6.46097754 45.6256813,6.17456655 46.1417178,5.9712353 C46.6575812,5.76807534 47.2368235,5.66666667 47.8792717,5.66666667 C48.5213735,5.66666667 49.1035597,5.76807534 49.6247912,5.9712353 C50.1458496,6.17456655 50.5907146,6.46097754 50.9593864,6.83081088 C51.3278849,7.20064422 51.6120514,7.64858964 51.812232,8.17430456 C52.0122394,8.70070467 52.1126761,9.28654535 52.1126761,9.93216918 C52.1126761,10.5783069 52.0122394,11.1615781 51.812232,11.6823254 C51.6120514,12.2032439 51.3278849,12.6484486 50.9593864,13.0182819 C50.5907146,13.3881152 50.1458496,13.6719568 49.6247912,13.8696352 C49.1035597,14.0674849 48.5213735,14.1666667 47.8792717,14.1666667 C47.2368235,14.1666667 46.6575812,14.0674849 46.1417178,13.8696352 C45.6256813,13.6719568 45.1834138,13.3881152 44.8149152,13.0182819 C44.4462435,12.6484486 44.1619039,12.2032439 43.9618964,11.6823254 C43.761889,11.1615781 43.6619718,10.5783069 43.6619718,9.93216918 C43.6619718,9.28654535 43.761889,8.70070467 43.9618964,8.17430456 L43.9618964,8.17430456 Z" id="Fill-6" sketch:type="MSShapeGroup"></path>
                <path d="M58.6030423,13.9581403 L58.6030423,12.8035089 L58.5595854,12.8035089 C58.298207,13.2845613 57.9591473,13.6321639 57.5432023,13.845965 C57.1269388,14.0595903 56.7009653,14.1666667 56.2654407,14.1666667 C55.7137127,14.1666667 55.2609964,14.0864913 54.9077694,13.9261404 C54.5543833,13.7657896 54.2761315,13.538626 54.0728549,13.2444736 C53.8697374,12.9504971 53.7266319,12.592521 53.6446527,12.1698418 C53.562196,11.7476902 53.5211268,11.2798245 53.5211268,10.7665963 L53.5211268,5.66666667 L55.5828643,5.66666667 L55.5828643,10.3497194 C55.5828643,11.0340235 55.6796475,11.5444385 55.8733732,11.8813158 C56.0669396,12.2180174 56.4106156,12.3864561 56.9042419,12.3864561 C57.4656802,12.3864561 57.8720742,12.2020175 58.1239016,11.8331403 C58.3755699,11.4642631 58.5013244,10.8576728 58.5013244,10.012842 L58.5013244,5.66666667 L60.5633803,5.66666667 L60.5633803,13.9581403 L58.6030423,13.9581403" id="Fill-7" sketch:type="MSShapeGroup"></path>
                <path d="M68.1250991,8.9520413 C68.0608117,8.64561028 67.9509068,8.37524002 67.7957365,8.14144323 C67.6403901,7.90764645 67.4394261,7.71811382 67.1931967,7.57250354 C66.9466151,7.42706417 66.6362745,7.35408813 66.2614704,7.35408813 C65.8863141,7.35408813 65.5705135,7.42706417 65.3135403,7.57250354 C65.056567,7.71811382 64.850143,7.91021001 64.6949727,8.14930482 C64.5396263,8.38839963 64.4272555,8.66133345 64.3575081,8.96776447 C64.2879369,9.2743664 64.2530632,9.59395703 64.2530632,9.92636547 C64.2530632,10.2380945 64.2905788,10.5499945 64.3656101,10.8617235 C64.4404652,11.1734526 64.5611141,11.4516844 64.7272044,11.6957354 C64.8929425,11.9399574 65.1020085,12.1376934 65.353874,12.2882599 C65.6052111,12.4388264 65.9079781,12.5141951 66.2614704,12.5141951 C66.6362745,12.5141951 66.9494332,12.4415609 67.2012987,12.2959506 C67.4526358,12.1505112 67.6535998,11.9556806 67.8038385,11.7114586 C67.9535487,11.4672367 68.0608117,11.1891757 68.1250991,10.8774467 C68.1892103,10.5657176 68.221442,10.2435635 68.221442,9.9108132 C68.221442,9.57840476 68.1892103,9.25881413 68.1250991,8.9520413 L68.1250991,8.9520413 Z M68.221442,12.9351318 C67.9535487,13.3716209 67.6028744,13.6860844 67.1690669,13.8781806 C66.7352594,14.0704477 66.2452665,14.1666667 65.6990882,14.1666667 C65.0778787,14.1666667 64.5317004,14.0495974 64.0603773,13.8158006 C63.5890541,13.5820038 63.2008642,13.2651476 62.8956314,12.8650612 C62.5903986,12.4649747 62.3598448,12.0050718 62.2048506,11.4851816 C62.0495042,10.9656332 61.971831,10.4252345 61.971831,9.86398548 C61.971831,9.32375768 62.0495042,8.8014748 62.2048506,8.29730776 C62.3598448,7.79348252 62.5903986,7.34913191 62.8956314,6.96442682 C63.2008642,6.58006354 63.5837702,6.27089805 64.0443495,6.03693036 C64.5047526,5.80313358 65.0403631,5.68623518 65.6510048,5.68623518 C66.1434635,5.68623518 66.6121447,5.7874104 67.05652,5.99010264 C67.5010715,6.19296579 67.8519219,6.49170613 68.1088951,6.88649456 L68.1411269,6.88649456 L68.1411269,2.83333333 L70.4225352,2.83333333 L70.4225352,13.9639744 L68.2534976,13.9639744 L68.2534976,12.9351318 L68.221442,12.9351318 L68.221442,12.9351318 Z" id="Fill-8" sketch:type="MSShapeGroup"></path>
                <path d="M78.5178846,9.48406215 L76.7457054,4.19849118 L76.7158262,4.19849118 L74.9137678,9.48406215 L78.5178846,9.48406215 L78.5178846,9.48406215 Z M77.5349734,2.83333333 L81.6901408,14.1666667 L80.1264629,14.1666667 L78.9646031,10.7540331 L74.4668861,10.7540331 L73.2756369,14.1666667 L71.8309859,14.1666667 L75.9711322,2.83333333 L77.5349734,2.83333333 L77.5349734,2.83333333 Z" id="Fill-9" sketch:type="MSShapeGroup"></path>
                <path d="M88.7108083,8.71846214 C88.6197372,8.35957839 88.4809247,8.03954376 88.2940556,7.75852939 C88.1071866,7.47751503 87.8675341,7.25383307 87.5755709,7.08731237 C87.2829774,6.92079168 86.9405942,6.83744576 86.5477911,6.83744576 C86.1357653,6.83744576 85.7861342,6.92609707 85.4987403,7.10288625 C85.2113464,7.28001772 84.9764208,7.51157219 84.7944362,7.7977208 C84.612294,8.08386941 84.4804142,8.40903829 84.399112,8.77322743 C84.3176522,9.13775885 84.2770011,9.5069111 84.2770011,9.88153987 C84.2770011,10.2772191 84.3201732,10.6597203 84.4063599,11.0288726 C84.4925465,11.3985383 84.6291531,11.7237071 84.8160222,12.0047215 C85.0028913,12.2855647 85.2447496,12.5119849 85.5417548,12.6836399 C85.8386025,12.855466 86.1980024,12.9412079 86.6196395,12.9412079 C87.0412766,12.9412079 87.3932711,12.85307 87.6759382,12.6757674 C87.9584476,12.4989782 88.1862829,12.2648566 88.3586562,11.9734026 C88.5311871,11.6822909 88.6555039,11.3489072 88.7323944,10.9742784 C88.8089697,10.5998208 88.847415,10.2149235 88.847415,9.81907322 C88.847415,9.44461559 88.8018794,9.07768818 88.7108083,8.71846214 L88.7108083,8.71846214 Z M84.3201732,5.85406662 L84.3201732,6.94680519 L84.3488496,6.94680519 C84.5500568,6.49944127 84.8662846,6.17410126 85.297533,5.97112742 C85.7286239,5.76815358 86.2028869,5.66666667 86.7203219,5.66666667 C87.2951097,5.66666667 87.7956856,5.78133148 88.2222072,6.01014769 C88.6484136,6.23913503 89.0029291,6.54873003 89.2857537,6.93893268 C89.5682631,7.32913533 89.7816027,7.7795798 89.9252996,8.28941037 C90.0689966,8.79941208 90.1408451,9.34056155 90.1408451,9.91285877 C90.1408451,10.4853271 90.07136,11.0266477 89.9325475,11.5363072 C89.7934199,12.04648 89.5826013,12.4912768 89.3000919,12.8710398 C89.0174248,13.2511451 88.6627518,13.5501294 88.2365453,13.7686771 C87.8101814,13.9872248 87.3141748,14.0964131 86.7491559,14.0964131 C86.5668561,14.0964131 86.3631279,14.0755338 86.1382863,14.0341176 C85.912972,13.992359 85.6903362,13.9247581 85.4699064,13.8309726 C85.2494765,13.7375293 85.0410214,13.6100289 84.8448561,13.4486424 C84.6483758,13.2874271 84.4830928,13.0871916 84.3488496,12.8475934 L84.3201732,12.8475934 L84.3201732,17 L83.0985915,17 L83.0985915,5.85406662 L84.3201732,5.85406662 L84.3201732,5.85406662 Z" id="Fill-10" sketch:type="MSShapeGroup"></path>
                <path d="M98.5699952,8.71846214 C98.4787686,8.35957839 98.3401168,8.03954376 98.1532519,7.75852939 C97.966387,7.47751503 97.7267399,7.25383307 97.4347832,7.08731237 C97.1421963,6.92079168 96.7998208,6.83744576 96.4070264,6.83744576 C95.9950098,6.83744576 95.6453865,6.92609707 95.3579991,7.10288625 C95.0706116,7.28001772 94.8355337,7.51157219 94.6537107,7.7977208 C94.4715726,8.08386941 94.3396958,8.40903829 94.2583954,8.77322743 C94.1769374,9.13775885 94.1362872,9.5069111 94.1362872,9.88153987 C94.1362872,10.2772191 94.1793008,10.6597203 94.2656431,11.0288726 C94.3518278,11.3985383 94.4884314,11.7237071 94.6752963,12.0047215 C94.8620036,12.2855647 95.1040141,12.5119849 95.4010127,12.6836399 C95.6978537,12.855466 96.057088,12.9412079 96.4788732,12.9412079 C96.9005009,12.9412079 97.2524875,12.85307 97.5351482,12.6757674 C97.8176514,12.4989782 98.045324,12.2648566 98.217851,11.9734026 C98.3903781,11.6822909 98.5146921,11.3489072 98.5915808,10.9742784 C98.6681544,10.5998208 98.7065988,10.2149235 98.7065988,9.81907322 C98.7065988,9.44461559 98.6610643,9.07768818 98.5699952,8.71846214 L98.5699952,8.71846214 Z M94.1793008,5.85406662 L94.1793008,6.94680519 L94.2081341,6.94680519 C94.4093368,6.49944127 94.7255576,6.17410126 95.1567963,5.97112742 C95.5878775,5.76815358 96.0621299,5.66666667 96.5795534,5.66666667 C97.1543283,5.66666667 97.654893,5.78133148 98.081405,6.01014769 C98.5076019,6.23913503 98.8621095,6.54873003 99.1449277,6.93893268 C99.4274309,7.32913533 99.6406081,7.7795798 99.7844594,8.28941037 C99.9281531,8.79941208 100,9.34056155 100,9.91285877 C100,10.4853271 99.930359,11.0266477 99.7915495,11.5363072 C99.6525826,12.04648 99.4417687,12.4912768 99.1592656,12.8710398 C98.8766049,13.2511451 98.5219398,13.5501294 98.0957429,13.7686771 C97.6693884,13.9872248 97.173393,14.0964131 96.6082291,14.0964131 C96.426091,14.0964131 96.2223673,14.0755338 95.9973732,14.0341176 C95.7722215,13.992359 95.5495907,13.9247581 95.3291658,13.8309726 C95.1087409,13.7375293 94.9002904,13.6100289 94.703972,13.4486424 C94.507496,13.2874271 94.3423743,13.0871916 94.2081341,12.8475934 L94.1793008,12.8475934 L94.1793008,17 L92.9577465,17 L92.9577465,5.85406662 L94.1793008,5.85406662 L94.1793008,5.85406662 Z" id="Fill-11" sketch:type="MSShapeGroup"></path>
            </g>
        </g>
    </g>
</svg>