<?xml version="1.0" encoding="UTF-8" standalone="no"?>
<svg width="255px" height="38px" viewBox="0 0 255 38" version="1.1" xmlns="http://www.w3.org/2000/svg" xmlns:xlink="http://www.w3.org/1999/xlink" xmlns:sketch="http://www.bohemiancoding.com/sketch/ns">
    <!-- Generator: Sketch 3.4 (15575) - http://www.bohemiancoding.com/sketch -->
    <title>earlybird-text</title>
    <desc>Created with Sketch.</desc>
    <defs>
        <filter x="-50%" y="-50%" width="200%" height="200%" filterUnits="objectBoundingBox" id="filter-1">
            <feOffset dx="0" dy="10" in="SourceAlpha" result="shadowOffsetOuter1"></feOffset>
            <feGaussianBlur stdDeviation="10" in="shadowOffsetOuter1" result="shadowBlurOuter1"></feGaussianBlur>
            <feColorMatrix values="0 0 0 0 0   0 0 0 0 0   0 0 0 0 0  0 0 0 0.0991111866 0" in="shadowBlurOuter1" type="matrix" result="shadowMatrixOuter1"></feColorMatrix>
            <feOffset dx="0" dy="6" in="SourceAlpha" result="shadowOffsetOuter2"></feOffset>
            <feGaussianBlur stdDeviation="3" in="shadowOffsetOuter2" result="shadowBlurOuter2"></feGaussianBlur>
            <feColorMatrix values="0 0 0 0 0   0 0 0 0 0   0 0 0 0 0  0 0 0 0.179517663 0" in="shadowBlurOuter2" type="matrix" result="shadowMatrixOuter2"></feColorMatrix>
            <feMerge>
                <feMergeNode in="shadowMatrixOuter1"></feMergeNode>
                <feMergeNode in="shadowMatrixOuter2"></feMergeNode>
                <feMergeNode in="SourceGraphic"></feMergeNode>
            </feMerge>
        </filter>
    </defs>
    <g id="Page-1" stroke="none" stroke-width="1" fill="none" fill-rule="evenodd" sketch:type="MSPage">
        <g id="earlybird-text" sketch:type="MSArtboardGroup" filter="url(#filter-1)" fill="#27273B">
            <path d="M19.7395545,1 L19.7395545,5.23643696 L5.50359965,5.23643696 L5.50359965,12.2971652 L18.2892427,12.2971652 L18.2892427,16.3046056 L5.50359965,16.3046056 L5.50359965,23.4416661 L20.1975477,23.4416661 L20.1975477,27.678103 L1,27.678103 L1,1 L19.7395545,1 Z M34.1583049,21.6096933 L31.486678,27.678103 L26.6777496,27.678103 L38.432908,1 L43.2418364,1 L54.9969949,27.678103 L50.1880664,27.678103 L47.5164395,21.6096933 L34.1583049,21.6096933 Z M45.6844668,17.4495886 L40.8373722,6.45775212 L35.9902777,17.4495886 L45.6844668,17.4495886 Z M84.4150221,9.66370442 C84.4150221,14.0655498 82.4940144,16.8389253 78.6519412,17.9839139 L85.6363373,27.678103 L79.9114225,27.678103 L73.537684,18.7090698 L67.6219387,18.7090698 L67.6219387,27.678103 L63.118339,27.678103 L63.118339,1 L73.0415247,1 C77.1125956,1 80.025912,1.68698291 81.7815613,3.06096933 C83.5372106,4.43495576 84.4150221,6.63584544 84.4150221,9.66370442 L84.4150221,9.66370442 Z M78.4229446,13.4421482 C79.3389356,12.6533782 79.7969242,11.3875486 79.7969242,9.64462137 C79.7969242,7.90169414 79.3262137,6.70583501 78.3847785,6.05700808 C77.4433434,5.40818116 75.7640518,5.08377257 73.3468535,5.08377257 L67.6219387,5.08377257 L67.6219387,14.6252973 L73.2323552,14.6252973 C75.7767745,14.6252973 77.5069537,14.2309182 78.4229446,13.4421482 L78.4229446,13.4421482 Z M95.3224915,27.678103 L95.3224915,1 L99.8260911,1 L99.8260911,23.4035 L112.001077,23.4035 L112.001077,27.678103 L95.3224915,27.678103 Z M129.320451,27.678103 L124.740519,27.678103 L124.740519,17.1442598 L114.817333,1 L119.74076,1 L127.030485,13.1368194 L134.32021,1 L139.243636,1 L129.320451,17.1442598 L129.320451,27.678103 Z M158.738478,27.678103 L147.059652,27.678103 L147.059652,1 L157.44083,1 C159.247368,1 160.805802,1.2162724 162.116178,1.64882368 C163.426554,2.08137496 164.399779,2.66658262 165.035884,3.40446422 C166.257205,4.77845065 166.867857,6.33052314 166.867857,8.06072827 C166.867857,10.1471521 166.206318,11.6992246 164.88322,12.7169923 C164.39978,13.073211 164.069011,13.2958444 163.890901,13.384899 C163.712792,13.4739537 163.394744,13.6202556 162.936749,13.8238092 C164.590621,14.1800279 165.907339,14.9242594 166.88694,16.056526 C167.866541,17.1887925 168.356335,18.5945631 168.356335,20.2738799 C168.356335,22.131306 167.720239,23.7724318 166.44803,25.1973066 C164.946822,26.8511792 162.376997,27.678103 158.738478,27.678103 L158.738478,27.678103 Z M151.563251,12.0681686 L157.288166,12.0681686 C160.545023,12.0681686 162.173427,10.9613628 162.173427,8.74771805 C162.173427,7.47550839 161.779048,6.55953118 160.990278,5.99975894 C160.201508,5.43998669 158.980205,5.16010476 157.326332,5.16010476 L151.563251,5.16010476 L151.563251,12.0681686 Z M151.563251,23.5179983 L158.62398,23.5179983 C160.277852,23.5179983 161.543682,23.2571992 162.421506,22.7355932 C163.299331,22.2139873 163.738237,21.2280396 163.738237,19.7777206 C163.738237,17.4114106 161.842673,16.2282734 158.051488,16.2282734 L151.563251,16.2282734 L151.563251,23.5179983 Z M178.42415,1 L182.92775,1 L182.92775,27.678103 L178.42415,27.678103 L178.42415,1 Z M216.047888,9.66370442 C216.047888,14.0655498 214.126881,16.8389253 210.284808,17.9839139 L217.269204,27.678103 L211.544289,27.678103 L205.17055,18.7090698 L199.254805,18.7090698 L199.254805,27.678103 L194.751205,27.678103 L194.751205,1 L204.674391,1 C208.745462,1 211.658778,1.68698291 213.414428,3.06096933 C215.170077,4.43495576 216.047888,6.63584544 216.047888,9.66370442 L216.047888,9.66370442 Z M210.055811,13.4421482 C210.971802,12.6533782 211.42979,11.3875486 211.42979,9.64462137 C211.42979,7.90169414 210.95908,6.70583501 210.017645,6.05700808 C209.07621,5.40818116 207.396918,5.08377257 204.97972,5.08377257 L199.254805,5.08377257 L199.254805,14.6252973 L204.865221,14.6252973 C207.409641,14.6252973 209.13982,14.2309182 210.055811,13.4421482 L210.055811,13.4421482 Z M247.145224,4.49219804 C249.715088,6.8203417 251,10.0580667 251,14.2054702 C251,18.3528736 249.753253,21.6351253 247.259722,24.0523236 C244.766191,26.469522 240.94962,27.678103 235.809893,27.678103 L226.955358,27.678103 L226.955358,1 L236.115221,1 C240.89873,1 244.575361,2.16405437 247.145224,4.49219804 L247.145224,4.49219804 Z" id="EARLYBIRD" sketch:type="MSShapeGroup"></path>
        </g>
    </g>
</svg>