<?xml version="1.0" encoding="UTF-8" standalone="no"?>
<svg width="50px" height="50px" viewBox="0 0 50 50" version="1.1" xmlns="http://www.w3.org/2000/svg" xmlns:xlink="http://www.w3.org/1999/xlink" xmlns:sketch="http://www.bohemiancoding.com/sketch/ns">
    <!-- Generator: Sketch 3.4.2 (15855) - http://www.bohemiancoding.com/sketch -->
    <title>growth</title>
    <desc>Created with Sketch.</desc>
    <defs></defs>
    <g id="Page-1" stroke="none" stroke-width="1" fill="none" fill-rule="evenodd" sketch:type="MSPage">
        <g id="Artboard-30" sketch:type="MSArtboardGroup" transform="translate(-272.000000, -110.000000)" fill="#000000">
            <g id="growth" sketch:type="MSLayerGroup" transform="translate(272.000000, 110.000000)">
                <g id="Capa_1" sketch:type="MSShapeGroup">
                    <g id="Group">
                        <path d="M24.995155,0.00154566271 C11.5066249,0.00154566271 0.532945736,11.0956257 0.532945736,24.7321491 C0.532945736,38.3686725 11.5066249,49.4627526 24.995155,49.4627526 C38.4836852,49.4627526 49.4573643,38.3686725 49.4573643,24.7321491 C49.4573643,11.0956257 38.4836852,0.00154566271 24.995155,0.00154566271 L24.995155,0.00154566271 Z M24.995155,46.7149077 C13.005275,46.7149077 3.25096899,36.8534079 3.25096899,24.7321491 C3.25096899,12.6108904 13.005275,2.74939049 24.995155,2.74939049 C36.9850351,2.74939049 46.7393411,12.6108904 46.7393411,24.7321491 C46.7393411,36.8534079 36.9850351,46.7149077 24.995155,46.7149077 L24.995155,46.7149077 Z" id="Shape"></path>
                        <path d="M39.9374879,13.6049232 C39.9356192,13.5853448 39.931882,13.5662817 39.9291639,13.5470467 C39.9255965,13.5219727 39.9227086,13.4968986 39.9177822,13.4719962 C39.9133654,13.4493265 39.9072499,13.4273437 39.901644,13.4051893 C39.8963778,13.3838935 39.8917911,13.3625977 39.8855057,13.3416453 C39.8788805,13.3198343 39.8707264,13.2987103 39.8632519,13.2772427 C39.8559472,13.2564621 39.8491521,13.2353381 39.8406583,13.214901 C39.8323344,13.1946356 39.8226514,13.1754007 39.8134781,13.1556506 C39.8037951,13.1346983 39.7946218,13.1135742 39.7837497,13.0931371 C39.7735571,13.0739022 39.7620055,13.0556977 39.7509635,13.036978 C39.7392421,13.0172279 39.7282001,12.997306 39.7154594,12.9780711 C39.7015295,12.9571188 39.6860707,12.9373687 39.6711216,12.9171033 C39.6594001,12.9014749 39.6486979,12.8853314 39.6362969,12.8700465 C39.5793883,12.7999764 39.5158545,12.7355738 39.4463751,12.6780408 C39.4312561,12.6655038 39.4152877,12.6546841 39.3998289,12.6428341 C39.3799534,12.6277209 39.3602477,12.6120925 39.3395228,12.5980098 C39.3204966,12.5851293 39.3007909,12.5739662 39.281425,12.5622879 C39.2629085,12.5511247 39.2447317,12.5392746 39.2257055,12.5289702 C39.2054902,12.5181506 39.1845954,12.5087049 39.1640404,12.4989157 C39.1445046,12.4896417 39.1253086,12.4796808 39.1052631,12.4712655 C39.084878,12.4628502 39.064153,12.4559806 39.043598,12.448424 C39.0223634,12.4406957 39.0014686,12.4324522 38.9798943,12.4259261 C38.9591694,12.4195717 38.9379348,12.4149347 38.9168702,12.4096107 C38.8949561,12.404115 38.8732119,12.3977606 38.8507882,12.3932954 C38.826326,12.3883149 38.801524,12.3853953 38.776892,12.3819605 C38.7576959,12.3792127 38.7388396,12.3754344 38.7194737,12.3735453 C38.6746263,12.36908 38.6297789,12.3666756 38.5847617,12.3666756 L30.4312016,12.3666756 C29.6806874,12.3666756 29.0721899,12.9818494 29.0721899,13.7405981 C29.0721899,14.4993467 29.6806874,15.1145205 30.4312016,15.1145205 L35.3044474,15.1145205 L24.995155,25.5369242 L21.8791113,22.3865201 C21.3484172,21.8500034 20.487993,21.8500034 19.9572989,22.3865201 L9.08520591,33.3778994 C8.55434199,33.9145878 8.55434199,34.7844525 9.08520591,35.3209692 C9.35055293,35.5892275 9.69829003,35.7233567 10.046197,35.7233567 C10.394104,35.7233567 10.7418411,35.5892275 11.0071881,35.3209692 L20.9181202,25.3011247 L24.0341639,28.4515288 C24.2332591,28.6526367 24.4785607,28.7783506 24.7355838,28.8286705 C24.8212016,28.8455011 24.9081783,28.8537446 24.995155,28.8537446 C25.0821318,28.8537446 25.1691085,28.8453293 25.2547263,28.8286705 C25.5117493,28.7783506 25.7570509,28.6526367 25.9561461,28.4515288 C25.956316,28.4513571 25.9564859,28.4511853 25.9564859,28.4510136 L37.2262597,17.0575902 L37.2262597,21.9843043 C37.2262597,22.7430529 37.8347571,23.3582267 38.5852713,23.3582267 C39.3357855,23.3582267 39.9442829,22.7430529 39.9442829,21.9843043 L39.9442829,13.7411133 C39.9442829,13.6957738 39.9419047,13.6502627 39.9374879,13.6049232 L39.9374879,13.6049232 Z" id="Shape"></path>
                    </g>
                </g>
            </g>
        </g>
    </g>
</svg>